<svg width="63" height="67" viewBox="0 0 63 67" fill="none" xmlns="http://www.w3.org/2000/svg">
<path d="M51.3138 28.4107C51.4161 28.4337 51.4596 28.4755 51.4836 28.508C51.5142 28.5495 51.5384 28.6139 51.5384 28.6925C51.5384 28.7712 51.5142 28.8356 51.4836 28.877C51.4596 28.9095 51.4161 28.9514 51.3138 28.9744C40.1072 31.5019 31.3555 40.2945 28.8397 51.5534C28.8168 51.6562 28.7751 51.6999 28.7428 51.7239C28.7015 51.7547 28.6374 51.779 28.5591 51.779C28.4809 51.779 28.4168 51.7547 28.3755 51.7239C28.3431 51.6999 28.3015 51.6562 28.2786 51.5534C25.7628 40.2945 17.0111 31.5019 5.80446 28.9744C5.70219 28.9514 5.6587 28.9095 5.63472 28.877C5.60413 28.8356 5.57989 28.7712 5.5799 28.6925C5.5799 28.6139 5.60413 28.5495 5.63472 28.508C5.6587 28.4755 5.7022 28.4337 5.80446 28.4107C17.0111 25.8831 25.7628 17.0906 28.2786 5.83167C28.3015 5.72893 28.3431 5.68523 28.3755 5.66113C28.4168 5.6304 28.4809 5.60605 28.5591 5.60606C28.6374 5.60606 28.7015 5.6304 28.7428 5.66113C28.7751 5.68523 28.8168 5.72893 28.8397 5.83167C31.3555 17.0906 40.1072 25.8831 51.3138 28.4107Z" fill="#FFCE10" stroke="#231B1F" stroke-width="2"/>
<path d="M50.4552 45.9957C51.7781 49.7287 54.708 52.6722 58.4237 54.0013C54.708 55.3305 51.7781 58.274 50.4552 62.007C49.1322 58.274 46.2023 55.3305 42.4867 54.0013C46.2023 52.6722 49.1322 49.7287 50.4552 45.9957Z" fill="#FFCE10" stroke="#231B1F" stroke-width="2"/>
</svg>
