<svg width="96" height="18" viewBox="0 0 96 18" fill="none" xmlns="http://www.w3.org/2000/svg">
<g clip-path="url(#clip0_706_130)">
<path d="M96 0H0V18H96V0Z" fill="#231B1F"/>
<path d="M10 4H6C4.89543 4 4 4.89543 4 6V12C4 13.1046 4.89543 14 6 14H10C11.1046 14 12 13.1046 12 12V6C12 4.89543 11.1046 4 10 4Z" fill="#BF5FEF"/>
<path d="M26 4H22C20.8954 4 20 4.89543 20 6V12C20 13.1046 20.8954 14 22 14H26C27.1046 14 28 13.1046 28 12V6C28 4.89543 27.1046 4 26 4Z" fill="#BF5FEF"/>
<path d="M42 4H38C36.8954 4 36 4.89543 36 6V12C36 13.1046 36.8954 14 38 14H42C43.1046 14 44 13.1046 44 12V6C44 4.89543 43.1046 4 42 4Z" fill="#BF5FEF"/>
<path d="M58 4H54C52.8954 4 52 4.89543 52 6V12C52 13.1046 52.8954 14 54 14H58C59.1046 14 60 13.1046 60 12V6C60 4.89543 59.1046 4 58 4Z" fill="#BF5FEF"/>
<path d="M74 4H70C68.8954 4 68 4.89543 68 6V12C68 13.1046 68.8954 14 70 14H74C75.1046 14 76 13.1046 76 12V6C76 4.89543 75.1046 4 74 4Z" fill="#BF5FEF"/>
<path d="M90 4H86C84.8954 4 84 4.89543 84 6V12C84 13.1046 84.8954 14 86 14H90C91.1046 14 92 13.1046 92 12V6C92 4.89543 91.1046 4 90 4Z" fill="#BF5FEF"/>
</g>
<defs>
<clipPath id="clip0_706_130">
<rect width="96" height="18" fill="white"/>
</clipPath>
</defs>
</svg>
