<svg width="55" height="55" viewBox="0 0 55 55" fill="none" xmlns="http://www.w3.org/2000/svg">
<path fill-rule="evenodd" clip-rule="evenodd" d="M37.7489 16.3762C51.2888 29.6049 57.2338 45.2447 51.0273 51.3085C45.183 57.0185 30.648 52.2015 17.6663 40.5745V31.3322C29.0977 40.7771 43.5943 47.4856 47.2492 43.9148C49.3325 39.8439 45.2418 28.1124 33.4992 16.6397C21.9964 5.40117 7.7986 -1.35715 1.38965 4.07167C1.57671 3.83745 1.77835 3.61436 1.99477 3.40292C8.20125 -2.66092 24.2089 3.1474 37.7489 16.3762Z" fill="#FFBA52"/>
<path d="M51.0273 51.3085L50.3285 50.5932L51.0273 51.3085ZM37.7489 16.3762L37.05 17.0914L37.7489 16.3762ZM17.6663 40.5745H16.6663C16.6663 40.8588 16.7874 41.1297 16.9992 41.3194L17.6663 40.5745ZM17.6663 31.3322L18.3033 30.5612C18.0048 30.3146 17.5906 30.2625 17.2403 30.4275C16.8899 30.5925 16.6663 30.9449 16.6663 31.3322H17.6663ZM47.2492 43.9148L47.948 44.6301C48.0254 44.5544 48.0901 44.4667 48.1394 44.3704L47.2492 43.9148ZM33.4992 16.6397L32.8004 17.355L33.4992 16.6397ZM1.38965 4.07167L0.608266 3.44762C0.287031 3.84984 0.323619 4.43021 0.692823 4.78891C1.06203 5.1476 1.64322 5.16742 2.036 4.83471L1.38965 4.07167ZM1.99477 3.40292L2.69361 4.1182H2.69361L1.99477 3.40292ZM51.7261 52.0238C55.2866 48.5451 55.1597 42.5718 52.7277 36.1739C50.262 29.687 45.2962 22.3519 38.4477 15.6609L37.05 17.0914C43.7415 23.6291 48.5182 30.7283 50.8583 36.8845C53.2321 43.1296 52.9744 48.008 50.3285 50.5932L51.7261 52.0238ZM16.9992 41.3194C23.5671 47.2019 30.5647 51.3972 36.7145 53.394C42.7897 55.3665 48.3849 55.2882 51.7261 52.0238L50.3285 50.5932C47.8254 53.0387 43.231 53.407 37.3322 51.4917C31.508 49.6007 24.7473 45.5741 18.3335 39.8296L16.9992 41.3194ZM16.6663 31.3322V40.5745H18.6663V31.3322H16.6663ZM46.5503 43.1995C45.9836 43.7532 44.8073 44.0573 42.825 43.7922C40.9024 43.5351 38.4863 42.7749 35.7749 41.5883C30.3617 39.2192 23.958 35.2333 18.3033 30.5612L17.0294 32.1031C22.8061 36.876 29.3664 40.9668 34.973 43.4205C37.7715 44.6453 40.3793 45.483 42.56 45.7746C44.681 46.0582 46.6873 45.8618 47.948 44.6301L46.5503 43.1995ZM32.8004 17.355C38.5954 23.0168 42.477 28.7189 44.6495 33.4688C45.7365 35.8454 46.3849 37.9602 46.6417 39.6954C46.9024 41.457 46.7427 42.7095 46.359 43.4592L48.1394 44.3704C48.7974 43.0846 48.9075 41.3441 48.6202 39.4026C48.329 37.4347 47.6114 35.1362 46.4683 32.637C44.1807 27.6352 40.1456 21.7353 34.1981 15.9244L32.8004 17.355ZM2.036 4.83471C4.77798 2.51206 9.42429 2.63905 15.1491 5.02828C20.7914 7.3831 27.1135 11.7988 32.8004 17.355L34.1981 15.9244C28.3821 10.2421 21.8539 5.65934 15.9194 3.18257C10.0673 0.74022 4.41027 0.202451 0.743299 3.30863L2.036 4.83471ZM1.29593 2.68764C1.05004 2.92788 0.820846 3.18144 0.608266 3.44762L2.17103 4.69572C2.33257 4.49345 2.50666 4.30085 2.69361 4.1182L1.29593 2.68764ZM38.4477 15.6609C31.5987 8.96924 24.094 4.12087 17.4629 1.71478C10.9227 -0.658288 4.84149 -0.776433 1.29593 2.68764L2.69361 4.1182C5.35453 1.51843 10.3804 1.27253 16.7807 3.59485C23.09 5.88415 30.3591 10.5543 37.05 17.0914L38.4477 15.6609Z" fill="#231B1F"/>
<path d="M15.9348 24.5859C16.3002 23.8378 17.3665 23.8378 17.7319 24.5859L21.1571 31.5991C21.3047 31.9013 21.5944 32.1091 21.9279 32.152L29.7736 33.1625C30.6146 33.2708 30.9476 34.3109 30.3259 34.8875L24.6174 40.1819C24.3651 40.4159 24.2508 40.7632 24.3149 41.1013L25.7524 48.686C25.9086 49.5099 25.0423 50.1486 24.3014 49.7557L17.3018 46.044C17.0088 45.8886 16.6579 45.8886 16.3649 46.044L9.36522 49.7557C8.62437 50.1486 7.75808 49.5099 7.91424 48.686L9.35174 41.1013C9.41582 40.7632 9.30156 40.4159 9.04924 40.1819L3.34075 34.8875C2.71905 34.3109 3.05205 33.2708 3.89303 33.1625L11.7387 32.152C12.0723 32.1091 12.3619 31.9013 12.5096 31.5991L15.9348 24.5859Z" fill="#FFBE25" stroke="#231B1F" stroke-width="2" stroke-linejoin="round"/>
</svg>
