<svg width="25" height="24" viewBox="0 0 25 24" fill="none" xmlns="http://www.w3.org/2000/svg">
<g id="Iconly/Light/Hide">
<g id="Hide">
<path id="Stroke 1" d="M10.4831 14.3668C9.90742 13.7928 9.55701 13.0128 9.55701 12.1378C9.55701 10.3848 10.9707 8.9718 12.7247 8.9718C13.5928 8.9718 14.3917 9.3228 14.9574 9.8968" stroke="#130F26" stroke-width="1.5" stroke-linecap="round" stroke-linejoin="round"/>
<path id="Stroke 3" d="M15.8337 12.6989C15.6014 13.9889 14.5842 15.0069 13.2937 15.2409" stroke="#130F26" stroke-width="1.5" stroke-linecap="round" stroke-linejoin="round"/>
<path id="Stroke 5" d="M7.37349 17.4723C5.78461 16.2263 4.43902 14.4063 3.46387 12.1373C4.44903 9.85829 5.80363 8.02829 7.40252 6.77229C8.9914 5.51629 10.8246 4.83429 12.7248 4.83429C14.6361 4.83429 16.4682 5.52629 18.0671 6.79129" stroke="#130F26" stroke-width="1.5" stroke-linecap="round" stroke-linejoin="round"/>
<path id="Stroke 7" d="M20.1816 8.99078C20.8704 9.90478 21.4761 10.9598 21.9858 12.1368C20.0164 16.6938 16.5363 19.4388 12.7248 19.4388C11.8608 19.4388 11.0088 19.2988 10.1898 19.0258" stroke="#130F26" stroke-width="1.5" stroke-linecap="round" stroke-linejoin="round"/>
<path id="Stroke 9" d="M20.6215 4.24957L4.82886 20.0236" stroke="#130F26" stroke-width="1.5" stroke-linecap="round" stroke-linejoin="round"/>
</g>
</g>
</svg>
